M48
;GenerationSoftware,Autodesk,EAGLE,8.6.0*%
;CreationDate,2018-02-12T05:02:08Z*%
FMAT,2
ICI,OFF
METRIC,TZ,000.000
T3C1.000
T2C1.016
T1C3.000
%
G90
M71
T1
X3048Y5080
X3048Y66802
X35331Y66802
X35636Y5080
T2
X7112Y66548
X31496Y66548
X28956Y66548
X26416Y66548
X23876Y66548
X21336Y66548
X18796Y66548
X14732Y66548
X12192Y66548
X9652Y66548
T3
X27940Y41402
X26035Y31432
X29527Y33338
X18415Y40958
X27622Y25082
X21336Y16256
X16192Y36513
X16192Y39688
X29527Y17145
X32385Y14287
X35052Y32258
X29210Y26162
X35814Y48006
X34036Y56642
X22098Y48514
X8382Y60452
X8128Y47752
X8128Y35052
X13462Y24384
X26670Y12446
X29972Y37846
X29972Y41402
X29210Y35814
X12700Y61277
M30