G04 EAGLE Gerber X2 export*
%TF.Part,Single*%
%TF.FileFunction,Paste,Top*%
%TF.FilePolarity,Positive*%
%TF.GenerationSoftware,Autodesk,EAGLE,8.6.0*%
%TF.CreationDate,2018-02-12T05:02:09Z*%
G75*
%MOMM*%
%FSLAX34Y34*%
%LPD*%
%AMOC8*
5,1,8,0,0,1.08239X$1,22.5*%
G01*
%ADD10R,1.300000X1.600000*%
%ADD11R,5.334000X1.930400*%
%ADD12R,1.200000X3.600000*%
%ADD13R,1.600000X2.300000*%
%ADD14R,1.600000X1.300000*%
%ADD15R,1.000000X1.500000*%
%ADD16R,0.540000X0.850000*%
%ADD17R,1.500000X1.000000*%
%ADD18R,4.600000X1.000000*%
%ADD19R,3.400000X1.600000*%


D10*
X178402Y161290D03*
X158402Y161290D03*
X246286Y160528D03*
X266286Y160528D03*
D11*
X262890Y200660D03*
X166370Y200660D03*
D12*
X360010Y604779D03*
X340010Y604779D03*
X320010Y604779D03*
X300010Y604779D03*
X280010Y604779D03*
X260010Y604779D03*
X240010Y604779D03*
X220010Y604779D03*
X220010Y444779D03*
X240010Y444779D03*
X260010Y444779D03*
X280010Y444779D03*
X300010Y444779D03*
X320010Y444779D03*
X340010Y444779D03*
X360010Y444779D03*
D10*
X216060Y385572D03*
X236060Y385572D03*
G36*
X285630Y274571D02*
X276437Y265378D01*
X265124Y276691D01*
X274317Y285884D01*
X285630Y274571D01*
G37*
G36*
X299772Y288713D02*
X290579Y279520D01*
X279266Y290833D01*
X288459Y300026D01*
X299772Y288713D01*
G37*
D13*
X350520Y295660D03*
X350520Y232660D03*
D14*
X312674Y269400D03*
X312674Y289400D03*
D15*
X312166Y247507D03*
X312166Y226457D03*
D10*
X217772Y243840D03*
X197772Y243840D03*
D16*
G36*
X239880Y263836D02*
X236062Y260018D01*
X230052Y266028D01*
X233870Y269846D01*
X239880Y263836D01*
G37*
G36*
X245537Y269493D02*
X241719Y265675D01*
X235709Y271685D01*
X239527Y275503D01*
X245537Y269493D01*
G37*
G36*
X251194Y275150D02*
X247376Y271332D01*
X241366Y277342D01*
X245184Y281160D01*
X251194Y275150D01*
G37*
G36*
X256850Y280807D02*
X253032Y276989D01*
X247022Y282999D01*
X250840Y286817D01*
X256850Y280807D01*
G37*
G36*
X262507Y286464D02*
X258689Y282646D01*
X252679Y288656D01*
X256497Y292474D01*
X262507Y286464D01*
G37*
G36*
X268093Y292050D02*
X264275Y288232D01*
X258265Y294242D01*
X262083Y298060D01*
X268093Y292050D01*
G37*
G36*
X273750Y297707D02*
X269932Y293889D01*
X263922Y299899D01*
X267740Y303717D01*
X273750Y297707D01*
G37*
G36*
X279407Y303363D02*
X275589Y299545D01*
X269579Y305555D01*
X273397Y309373D01*
X279407Y303363D01*
G37*
G36*
X275660Y330304D02*
X279478Y326486D01*
X273468Y320476D01*
X269650Y324294D01*
X275660Y330304D01*
G37*
G36*
X270003Y335961D02*
X273821Y332143D01*
X267811Y326133D01*
X263993Y329951D01*
X270003Y335961D01*
G37*
G36*
X264346Y341618D02*
X268164Y337800D01*
X262154Y331790D01*
X258336Y335608D01*
X264346Y341618D01*
G37*
G36*
X258689Y347274D02*
X262507Y343456D01*
X256497Y337446D01*
X252679Y341264D01*
X258689Y347274D01*
G37*
G36*
X253032Y352931D02*
X256850Y349113D01*
X250840Y343103D01*
X247022Y346921D01*
X253032Y352931D01*
G37*
G36*
X247376Y358588D02*
X251194Y354770D01*
X245184Y348760D01*
X241366Y352578D01*
X247376Y358588D01*
G37*
G36*
X241719Y364245D02*
X245537Y360427D01*
X239527Y354417D01*
X235709Y358235D01*
X241719Y364245D01*
G37*
G36*
X236062Y369902D02*
X239880Y366084D01*
X233870Y360074D01*
X230052Y363892D01*
X236062Y369902D01*
G37*
G36*
X209192Y366084D02*
X213010Y369902D01*
X219020Y363892D01*
X215202Y360074D01*
X209192Y366084D01*
G37*
G36*
X203535Y360427D02*
X207353Y364245D01*
X213363Y358235D01*
X209545Y354417D01*
X203535Y360427D01*
G37*
G36*
X197878Y354770D02*
X201696Y358588D01*
X207706Y352578D01*
X203888Y348760D01*
X197878Y354770D01*
G37*
G36*
X192222Y349113D02*
X196040Y352931D01*
X202050Y346921D01*
X198232Y343103D01*
X192222Y349113D01*
G37*
G36*
X186565Y343456D02*
X190383Y347274D01*
X196393Y341264D01*
X192575Y337446D01*
X186565Y343456D01*
G37*
G36*
X180908Y337800D02*
X184726Y341618D01*
X190736Y335608D01*
X186918Y331790D01*
X180908Y337800D01*
G37*
G36*
X175251Y332143D02*
X179069Y335961D01*
X185079Y329951D01*
X181261Y326133D01*
X175251Y332143D01*
G37*
G36*
X169594Y326486D02*
X173412Y330304D01*
X179422Y324294D01*
X175604Y320476D01*
X169594Y326486D01*
G37*
G36*
X173412Y299616D02*
X169594Y303434D01*
X175604Y309444D01*
X179422Y305626D01*
X173412Y299616D01*
G37*
G36*
X179069Y293959D02*
X175251Y297777D01*
X181261Y303787D01*
X185079Y299969D01*
X179069Y293959D01*
G37*
G36*
X184726Y288302D02*
X180908Y292120D01*
X186918Y298130D01*
X190736Y294312D01*
X184726Y288302D01*
G37*
G36*
X190383Y282646D02*
X186565Y286464D01*
X192575Y292474D01*
X196393Y288656D01*
X190383Y282646D01*
G37*
G36*
X196040Y276989D02*
X192222Y280807D01*
X198232Y286817D01*
X202050Y282999D01*
X196040Y276989D01*
G37*
G36*
X201696Y271332D02*
X197878Y275150D01*
X203888Y281160D01*
X207706Y277342D01*
X201696Y271332D01*
G37*
G36*
X207353Y265675D02*
X203535Y269493D01*
X209545Y275503D01*
X213363Y271685D01*
X207353Y265675D01*
G37*
G36*
X213010Y260018D02*
X209192Y263836D01*
X215202Y269846D01*
X219020Y266028D01*
X213010Y260018D01*
G37*
D17*
X157115Y243840D03*
X178165Y243840D03*
D18*
X80180Y137320D03*
X80180Y157320D03*
D19*
X28180Y113320D03*
X28180Y221320D03*
D18*
X80180Y177320D03*
X80180Y197320D03*
X80340Y541340D03*
X80340Y561340D03*
D19*
X28340Y517340D03*
X28340Y605340D03*
D18*
X80340Y581340D03*
X80340Y414340D03*
X80340Y434340D03*
D19*
X28340Y390340D03*
X28340Y478340D03*
D18*
X80340Y454340D03*
X80340Y287340D03*
X80340Y307340D03*
D19*
X28340Y263340D03*
X28340Y351340D03*
D18*
X80340Y327340D03*
X305900Y124300D03*
X305900Y104300D03*
D19*
X357900Y148300D03*
X357900Y80300D03*
M02*
