G04 EAGLE Gerber X2 export*
%TF.Part,Single*%
%TF.FileFunction,Soldermask,Top,1*%
%TF.FilePolarity,Negative*%
%TF.GenerationSoftware,Autodesk,EAGLE,8.6.0*%
%TF.CreationDate,2018-02-12T05:02:09Z*%
G75*
%MOMM*%
%FSLAX34Y34*%
%LPD*%
%AMOC8*
5,1,8,0,0,1.08239X$1,22.5*%
G01*
%ADD10C,3.203200*%
%ADD11R,1.503200X1.803200*%
%ADD12R,5.537200X2.133600*%
%ADD13R,1.403200X3.803200*%
%ADD14R,1.803200X2.503200*%
%ADD15R,1.803200X1.503200*%
%ADD16R,1.203200X1.703200*%
%ADD17R,0.743200X1.053200*%
%ADD18C,1.727200*%
%ADD19R,1.703200X1.203200*%
%ADD20R,4.803200X1.203200*%
%ADD21R,3.603200X1.803200*%
%ADD22C,1.703200*%


D10*
X30480Y50800D03*
X30480Y668020D03*
X353314Y668020D03*
X356362Y50800D03*
D11*
X178402Y161290D03*
X158402Y161290D03*
X246286Y160528D03*
X266286Y160528D03*
D12*
X262890Y200660D03*
X166370Y200660D03*
D13*
X360010Y604779D03*
X340010Y604779D03*
X320010Y604779D03*
X300010Y604779D03*
X280010Y604779D03*
X260010Y604779D03*
X240010Y604779D03*
X220010Y604779D03*
X220010Y444779D03*
X240010Y444779D03*
X260010Y444779D03*
X280010Y444779D03*
X300010Y444779D03*
X320010Y444779D03*
X340010Y444779D03*
X360010Y444779D03*
D11*
X216060Y385572D03*
X236060Y385572D03*
G36*
X287066Y274571D02*
X276437Y263942D01*
X263688Y276691D01*
X274317Y287320D01*
X287066Y274571D01*
G37*
G36*
X301208Y288713D02*
X290579Y278084D01*
X277830Y290833D01*
X288459Y301462D01*
X301208Y288713D01*
G37*
D14*
X350520Y295660D03*
X350520Y232660D03*
D15*
X312674Y269400D03*
X312674Y289400D03*
D16*
X312166Y247507D03*
X312166Y226457D03*
D11*
X217772Y243840D03*
X197772Y243840D03*
D17*
G36*
X241317Y263836D02*
X236062Y258581D01*
X228615Y266028D01*
X233870Y271283D01*
X241317Y263836D01*
G37*
G36*
X246974Y269493D02*
X241719Y264238D01*
X234272Y271685D01*
X239527Y276940D01*
X246974Y269493D01*
G37*
G36*
X252631Y275150D02*
X247376Y269895D01*
X239929Y277342D01*
X245184Y282597D01*
X252631Y275150D01*
G37*
G36*
X258287Y280807D02*
X253032Y275552D01*
X245585Y282999D01*
X250840Y288254D01*
X258287Y280807D01*
G37*
G36*
X263944Y286464D02*
X258689Y281209D01*
X251242Y288656D01*
X256497Y293911D01*
X263944Y286464D01*
G37*
G36*
X269530Y292050D02*
X264275Y286795D01*
X256828Y294242D01*
X262083Y299497D01*
X269530Y292050D01*
G37*
G36*
X275187Y297707D02*
X269932Y292452D01*
X262485Y299899D01*
X267740Y305154D01*
X275187Y297707D01*
G37*
G36*
X280844Y303363D02*
X275589Y298108D01*
X268142Y305555D01*
X273397Y310810D01*
X280844Y303363D01*
G37*
G36*
X275660Y331741D02*
X280915Y326486D01*
X273468Y319039D01*
X268213Y324294D01*
X275660Y331741D01*
G37*
G36*
X270003Y337398D02*
X275258Y332143D01*
X267811Y324696D01*
X262556Y329951D01*
X270003Y337398D01*
G37*
G36*
X264346Y343055D02*
X269601Y337800D01*
X262154Y330353D01*
X256899Y335608D01*
X264346Y343055D01*
G37*
G36*
X258689Y348711D02*
X263944Y343456D01*
X256497Y336009D01*
X251242Y341264D01*
X258689Y348711D01*
G37*
G36*
X253032Y354368D02*
X258287Y349113D01*
X250840Y341666D01*
X245585Y346921D01*
X253032Y354368D01*
G37*
G36*
X247376Y360025D02*
X252631Y354770D01*
X245184Y347323D01*
X239929Y352578D01*
X247376Y360025D01*
G37*
G36*
X241719Y365682D02*
X246974Y360427D01*
X239527Y352980D01*
X234272Y358235D01*
X241719Y365682D01*
G37*
G36*
X236062Y371339D02*
X241317Y366084D01*
X233870Y358637D01*
X228615Y363892D01*
X236062Y371339D01*
G37*
G36*
X207755Y366084D02*
X213010Y371339D01*
X220457Y363892D01*
X215202Y358637D01*
X207755Y366084D01*
G37*
G36*
X202098Y360427D02*
X207353Y365682D01*
X214800Y358235D01*
X209545Y352980D01*
X202098Y360427D01*
G37*
G36*
X196441Y354770D02*
X201696Y360025D01*
X209143Y352578D01*
X203888Y347323D01*
X196441Y354770D01*
G37*
G36*
X190785Y349113D02*
X196040Y354368D01*
X203487Y346921D01*
X198232Y341666D01*
X190785Y349113D01*
G37*
G36*
X185128Y343456D02*
X190383Y348711D01*
X197830Y341264D01*
X192575Y336009D01*
X185128Y343456D01*
G37*
G36*
X179471Y337800D02*
X184726Y343055D01*
X192173Y335608D01*
X186918Y330353D01*
X179471Y337800D01*
G37*
G36*
X173814Y332143D02*
X179069Y337398D01*
X186516Y329951D01*
X181261Y324696D01*
X173814Y332143D01*
G37*
G36*
X168157Y326486D02*
X173412Y331741D01*
X180859Y324294D01*
X175604Y319039D01*
X168157Y326486D01*
G37*
G36*
X173412Y298179D02*
X168157Y303434D01*
X175604Y310881D01*
X180859Y305626D01*
X173412Y298179D01*
G37*
G36*
X179069Y292522D02*
X173814Y297777D01*
X181261Y305224D01*
X186516Y299969D01*
X179069Y292522D01*
G37*
G36*
X184726Y286865D02*
X179471Y292120D01*
X186918Y299567D01*
X192173Y294312D01*
X184726Y286865D01*
G37*
G36*
X190383Y281209D02*
X185128Y286464D01*
X192575Y293911D01*
X197830Y288656D01*
X190383Y281209D01*
G37*
G36*
X196040Y275552D02*
X190785Y280807D01*
X198232Y288254D01*
X203487Y282999D01*
X196040Y275552D01*
G37*
G36*
X201696Y269895D02*
X196441Y275150D01*
X203888Y282597D01*
X209143Y277342D01*
X201696Y269895D01*
G37*
G36*
X207353Y264238D02*
X202098Y269493D01*
X209545Y276940D01*
X214800Y271685D01*
X207353Y264238D01*
G37*
G36*
X213010Y258581D02*
X207755Y263836D01*
X215202Y271283D01*
X220457Y266028D01*
X213010Y258581D01*
G37*
D18*
X314960Y657860D02*
X314960Y673100D01*
X289560Y673100D02*
X289560Y657860D01*
X264160Y657860D02*
X264160Y673100D01*
X238760Y673100D02*
X238760Y657860D01*
X213360Y657860D02*
X213360Y673100D01*
X187960Y673100D02*
X187960Y657860D01*
D19*
X157115Y243840D03*
X178165Y243840D03*
D20*
X80180Y137320D03*
X80180Y157320D03*
D21*
X28180Y113320D03*
X28180Y221320D03*
D20*
X80180Y177320D03*
X80180Y197320D03*
X80340Y541340D03*
X80340Y561340D03*
D21*
X28340Y517340D03*
X28340Y605340D03*
D20*
X80340Y581340D03*
X80340Y414340D03*
X80340Y434340D03*
D21*
X28340Y390340D03*
X28340Y478340D03*
D20*
X80340Y454340D03*
X80340Y287340D03*
X80340Y307340D03*
D21*
X28340Y263340D03*
X28340Y351340D03*
D20*
X80340Y327340D03*
D18*
X147320Y657860D02*
X147320Y673100D01*
X121920Y673100D02*
X121920Y657860D01*
X96520Y657860D02*
X96520Y673100D01*
X71120Y673100D02*
X71120Y657860D01*
D20*
X305900Y124300D03*
X305900Y104300D03*
D21*
X357900Y148300D03*
X357900Y80300D03*
D22*
X213360Y162560D03*
X350520Y322580D03*
X292100Y261620D03*
X358140Y480060D03*
X340360Y566420D03*
X220980Y485140D03*
X83820Y604520D03*
X81280Y477520D03*
X81280Y350520D03*
X134620Y243840D03*
X266700Y124460D03*
X299720Y378460D03*
X299720Y414020D03*
X292100Y358140D03*
X279400Y414020D03*
X260350Y314325D03*
X295275Y333375D03*
X184150Y409575D03*
X276225Y250825D03*
X127000Y612775D03*
X161925Y365125D03*
X161925Y396875D03*
X295275Y171450D03*
X323850Y142875D03*
M02*
